<mxfile host="Electron" modified="2023-10-12T06:03:13.754Z" agent="Mozilla/5.0 (Macintosh; Intel Mac OS X 10_15_7) AppleWebKit/537.36 (KHTML, like Gecko) draw.io/21.6.8 Chrome/114.0.5735.289 Electron/25.5.0 Safari/537.36" etag="MaTRC6tbzOz1A4Ek3QEe" version="21.6.8" type="device">
  <diagram name="Page-1" id="B50agD84sXNuSAmCxt6J">
    <mxGraphModel dx="892" dy="671" grid="1" gridSize="10" guides="1" tooltips="1" connect="1" arrows="1" fold="1" page="1" pageScale="1" pageWidth="850" pageHeight="1100" math="0" shadow="0">
      <root>
        <mxCell id="0" />
        <mxCell id="1" parent="0" />
        <mxCell id="_T47_QlXfjNcCWRfcqJe-1" value="&lt;div style=&quot;font-size: 15pt;&quot;&gt;&lt;pre style=&quot;&quot;&gt;&lt;font style=&quot;&quot; face=&quot;Times New Roman&quot;&gt;mainDriver implements ClassFileTransformer&lt;/font&gt;&lt;/pre&gt;&lt;/div&gt;" style="rounded=0;whiteSpace=wrap;html=1;" vertex="1" parent="1">
          <mxGeometry x="20" y="20" width="400" height="60" as="geometry" />
        </mxCell>
        <mxCell id="_T47_QlXfjNcCWRfcqJe-3" value="&lt;font style=&quot;font-size: 24px;&quot; face=&quot;Times New Roman&quot;&gt;first pass&lt;/font&gt;" style="rounded=0;whiteSpace=wrap;html=1;" vertex="1" parent="1">
          <mxGeometry x="440" y="100" width="300" height="60" as="geometry" />
        </mxCell>
        <mxCell id="_T47_QlXfjNcCWRfcqJe-4" value="&lt;div style=&quot;font-size: 15pt;&quot;&gt;&lt;pre style=&quot;&quot;&gt;&lt;font face=&quot;Times New Roman&quot;&gt;StaticInfoCollector extends ClassVisitor&lt;/font&gt;&lt;/pre&gt;&lt;/div&gt;" style="rounded=0;whiteSpace=wrap;html=1;" vertex="1" parent="1">
          <mxGeometry x="70" y="280" width="360" height="60" as="geometry" />
        </mxCell>
        <mxCell id="_T47_QlXfjNcCWRfcqJe-5" value="&lt;font style=&quot;font-size: 18px;&quot; face=&quot;Times New Roman&quot;&gt;@override&lt;br&gt;visitMethod: LineRecorder&lt;/font&gt;" style="rounded=0;whiteSpace=wrap;html=1;" vertex="1" parent="1">
          <mxGeometry x="70" y="370" width="250" height="60" as="geometry" />
        </mxCell>
        <mxCell id="_T47_QlXfjNcCWRfcqJe-6" value="&lt;div style=&quot;font-size: 15pt;&quot;&gt;&lt;pre style=&quot;&quot;&gt;&lt;font face=&quot;Times New Roman&quot;&gt;LineRecorder extends MethodVisitor&lt;/font&gt;&lt;/pre&gt;&lt;/div&gt;" style="rounded=0;whiteSpace=wrap;html=1;" vertex="1" parent="1">
          <mxGeometry x="70" y="450" width="320" height="60" as="geometry" />
        </mxCell>
        <mxCell id="_T47_QlXfjNcCWRfcqJe-7" value="&lt;font style=&quot;&quot;&gt;&lt;font face=&quot;Times New Roman&quot; style=&quot;font-size: 18px;&quot;&gt;@override&lt;br&gt;&lt;span style=&quot;background-color: initial;&quot;&gt;visitLineNumber:void&lt;/span&gt;&lt;/font&gt;&lt;br&gt;&lt;/font&gt;" style="rounded=0;whiteSpace=wrap;html=1;" vertex="1" parent="1">
          <mxGeometry x="70" y="540" width="190" height="60" as="geometry" />
        </mxCell>
        <mxCell id="_T47_QlXfjNcCWRfcqJe-8" value="" style="endArrow=classic;html=1;rounded=0;exitX=0.25;exitY=1;exitDx=0;exitDy=0;entryX=0.468;entryY=-0.05;entryDx=0;entryDy=0;entryPerimeter=0;" edge="1" parent="1" source="_T47_QlXfjNcCWRfcqJe-4" target="_T47_QlXfjNcCWRfcqJe-5">
          <mxGeometry width="50" height="50" relative="1" as="geometry">
            <mxPoint x="300" y="280" as="sourcePoint" />
            <mxPoint x="350" y="230" as="targetPoint" />
          </mxGeometry>
        </mxCell>
        <mxCell id="_T47_QlXfjNcCWRfcqJe-9" value="" style="endArrow=classic;html=1;rounded=0;exitX=0.5;exitY=1;exitDx=0;exitDy=0;entryX=0.5;entryY=0;entryDx=0;entryDy=0;" edge="1" parent="1" source="_T47_QlXfjNcCWRfcqJe-5" target="_T47_QlXfjNcCWRfcqJe-6">
          <mxGeometry width="50" height="50" relative="1" as="geometry">
            <mxPoint x="300" y="280" as="sourcePoint" />
            <mxPoint x="350" y="230" as="targetPoint" />
          </mxGeometry>
        </mxCell>
        <mxCell id="_T47_QlXfjNcCWRfcqJe-10" value="" style="endArrow=classic;html=1;rounded=0;exitX=0.25;exitY=1;exitDx=0;exitDy=0;entryX=0.5;entryY=0;entryDx=0;entryDy=0;" edge="1" parent="1" source="_T47_QlXfjNcCWRfcqJe-6" target="_T47_QlXfjNcCWRfcqJe-7">
          <mxGeometry width="50" height="50" relative="1" as="geometry">
            <mxPoint x="300" y="280" as="sourcePoint" />
            <mxPoint x="350" y="230" as="targetPoint" />
          </mxGeometry>
        </mxCell>
        <mxCell id="_T47_QlXfjNcCWRfcqJe-11" value="save all line number and method info" style="text;html=1;align=center;verticalAlign=middle;resizable=0;points=[];autosize=1;strokeColor=none;fillColor=none;" vertex="1" parent="1">
          <mxGeometry x="270" y="540" width="220" height="30" as="geometry" />
        </mxCell>
        <mxCell id="_T47_QlXfjNcCWRfcqJe-16" style="edgeStyle=orthogonalEdgeStyle;rounded=0;orthogonalLoop=1;jettySize=auto;html=1;exitX=0.5;exitY=1;exitDx=0;exitDy=0;entryX=0.5;entryY=0;entryDx=0;entryDy=0;" edge="1" parent="1" source="_T47_QlXfjNcCWRfcqJe-12" target="_T47_QlXfjNcCWRfcqJe-13">
          <mxGeometry relative="1" as="geometry" />
        </mxCell>
        <mxCell id="_T47_QlXfjNcCWRfcqJe-12" value="classReader(input byte[])" style="rounded=0;whiteSpace=wrap;html=1;" vertex="1" parent="1">
          <mxGeometry x="500" y="190" width="180" height="50" as="geometry" />
        </mxCell>
        <mxCell id="_T47_QlXfjNcCWRfcqJe-17" style="edgeStyle=orthogonalEdgeStyle;rounded=0;orthogonalLoop=1;jettySize=auto;html=1;exitX=0.5;exitY=1;exitDx=0;exitDy=0;" edge="1" parent="1" source="_T47_QlXfjNcCWRfcqJe-13" target="_T47_QlXfjNcCWRfcqJe-14">
          <mxGeometry relative="1" as="geometry" />
        </mxCell>
        <mxCell id="_T47_QlXfjNcCWRfcqJe-22" style="edgeStyle=orthogonalEdgeStyle;rounded=0;orthogonalLoop=1;jettySize=auto;html=1;entryX=1;entryY=0.5;entryDx=0;entryDy=0;" edge="1" parent="1" source="_T47_QlXfjNcCWRfcqJe-13" target="_T47_QlXfjNcCWRfcqJe-4">
          <mxGeometry relative="1" as="geometry" />
        </mxCell>
        <mxCell id="_T47_QlXfjNcCWRfcqJe-13" value="custom classVisitor" style="rounded=0;whiteSpace=wrap;html=1;" vertex="1" parent="1">
          <mxGeometry x="530" y="405" width="120" height="60" as="geometry" />
        </mxCell>
        <mxCell id="_T47_QlXfjNcCWRfcqJe-14" value="classWriter: output byte[]" style="rounded=0;whiteSpace=wrap;html=1;" vertex="1" parent="1">
          <mxGeometry x="510" y="600" width="160" height="40" as="geometry" />
        </mxCell>
        <mxCell id="_T47_QlXfjNcCWRfcqJe-15" value="&lt;font style=&quot;font-size: 24px;&quot; face=&quot;Times New Roman&quot;&gt;second pass&lt;/font&gt;" style="rounded=0;whiteSpace=wrap;html=1;" vertex="1" parent="1">
          <mxGeometry x="450" y="710" width="280" height="80" as="geometry" />
        </mxCell>
        <mxCell id="_T47_QlXfjNcCWRfcqJe-19" value="automatically invoke each visit method on each element" style="text;html=1;align=center;verticalAlign=middle;resizable=0;points=[];autosize=1;strokeColor=none;fillColor=none;" vertex="1" parent="1">
          <mxGeometry x="590" y="300" width="320" height="30" as="geometry" />
        </mxCell>
        <mxCell id="_T47_QlXfjNcCWRfcqJe-20" value="delegate each visit method" style="text;html=1;align=center;verticalAlign=middle;resizable=0;points=[];autosize=1;strokeColor=none;fillColor=none;" vertex="1" parent="1">
          <mxGeometry x="590" y="510" width="170" height="30" as="geometry" />
        </mxCell>
        <mxCell id="_T47_QlXfjNcCWRfcqJe-21" value="custom processing in the visit method" style="text;html=1;align=center;verticalAlign=middle;resizable=0;points=[];autosize=1;strokeColor=none;fillColor=none;" vertex="1" parent="1">
          <mxGeometry x="660" y="420" width="220" height="30" as="geometry" />
        </mxCell>
        <mxCell id="_T47_QlXfjNcCWRfcqJe-23" value="FirstPassResult:&lt;br&gt;method -&amp;gt; Set&amp;lt;Line#&amp;gt;" style="rounded=0;whiteSpace=wrap;html=1;" vertex="1" parent="1">
          <mxGeometry x="310" y="630" width="130" height="50" as="geometry" />
        </mxCell>
        <mxCell id="_T47_QlXfjNcCWRfcqJe-24" value="" style="endArrow=classic;html=1;rounded=0;entryX=0.5;entryY=0;entryDx=0;entryDy=0;exitX=1;exitY=0.5;exitDx=0;exitDy=0;" edge="1" parent="1" source="_T47_QlXfjNcCWRfcqJe-7" target="_T47_QlXfjNcCWRfcqJe-23">
          <mxGeometry width="50" height="50" relative="1" as="geometry">
            <mxPoint x="390" y="570" as="sourcePoint" />
            <mxPoint x="440" y="520" as="targetPoint" />
            <Array as="points">
              <mxPoint x="375" y="570" />
            </Array>
          </mxGeometry>
        </mxCell>
        <mxCell id="_T47_QlXfjNcCWRfcqJe-25" value="&lt;div style=&quot;font-size: 15pt;&quot;&gt;&lt;pre style=&quot;&quot;&gt;&lt;font face=&quot;Times New Roman&quot;&gt;CoverageRecorder extends ClassVisitor&lt;/font&gt;&lt;/pre&gt;&lt;/div&gt;" style="rounded=0;whiteSpace=wrap;html=1;" vertex="1" parent="1">
          <mxGeometry x="20" y="910" width="360" height="60" as="geometry" />
        </mxCell>
        <mxCell id="_T47_QlXfjNcCWRfcqJe-26" value="&lt;font style=&quot;font-size: 18px;&quot; face=&quot;Times New Roman&quot;&gt;@override&lt;br&gt;visitMethod: methodInjector&lt;/font&gt;" style="rounded=0;whiteSpace=wrap;html=1;" vertex="1" parent="1">
          <mxGeometry x="75" y="1010" width="250" height="60" as="geometry" />
        </mxCell>
        <mxCell id="_T47_QlXfjNcCWRfcqJe-62" style="edgeStyle=orthogonalEdgeStyle;rounded=0;orthogonalLoop=1;jettySize=auto;html=1;exitX=0.5;exitY=1;exitDx=0;exitDy=0;entryX=0.5;entryY=0;entryDx=0;entryDy=0;" edge="1" parent="1" source="_T47_QlXfjNcCWRfcqJe-27" target="_T47_QlXfjNcCWRfcqJe-28">
          <mxGeometry relative="1" as="geometry" />
        </mxCell>
        <mxCell id="_T47_QlXfjNcCWRfcqJe-63" style="edgeStyle=orthogonalEdgeStyle;rounded=0;orthogonalLoop=1;jettySize=auto;html=1;entryX=0.5;entryY=0;entryDx=0;entryDy=0;" edge="1" parent="1" source="_T47_QlXfjNcCWRfcqJe-27" target="_T47_QlXfjNcCWRfcqJe-40">
          <mxGeometry relative="1" as="geometry" />
        </mxCell>
        <mxCell id="_T47_QlXfjNcCWRfcqJe-27" value="&lt;div style=&quot;font-size: 15pt;&quot;&gt;&lt;pre style=&quot;&quot;&gt;&lt;font face=&quot;Times New Roman&quot;&gt;methodInjector extends MethodVisitor&lt;/font&gt;&lt;/pre&gt;&lt;/div&gt;" style="rounded=0;whiteSpace=wrap;html=1;" vertex="1" parent="1">
          <mxGeometry x="40" y="1090" width="320" height="60" as="geometry" />
        </mxCell>
        <mxCell id="_T47_QlXfjNcCWRfcqJe-58" style="edgeStyle=orthogonalEdgeStyle;rounded=0;orthogonalLoop=1;jettySize=auto;html=1;entryX=0.5;entryY=0;entryDx=0;entryDy=0;" edge="1" parent="1" source="_T47_QlXfjNcCWRfcqJe-28" target="_T47_QlXfjNcCWRfcqJe-34">
          <mxGeometry relative="1" as="geometry" />
        </mxCell>
        <mxCell id="_T47_QlXfjNcCWRfcqJe-28" value="&lt;font style=&quot;&quot;&gt;&lt;font face=&quot;Times New Roman&quot; style=&quot;font-size: 18px;&quot;&gt;@override&lt;br&gt;&lt;span style=&quot;background-color: initial;&quot;&gt;visitLineNumber:void&lt;/span&gt;&lt;/font&gt;&lt;br&gt;&lt;/font&gt;" style="rounded=0;whiteSpace=wrap;html=1;" vertex="1" parent="1">
          <mxGeometry x="30" y="1190" width="180" height="50" as="geometry" />
        </mxCell>
        <mxCell id="_T47_QlXfjNcCWRfcqJe-29" value="" style="endArrow=classic;html=1;rounded=0;exitX=0.5;exitY=1;exitDx=0;exitDy=0;entryX=0.5;entryY=0;entryDx=0;entryDy=0;" edge="1" parent="1" source="_T47_QlXfjNcCWRfcqJe-25" target="_T47_QlXfjNcCWRfcqJe-26">
          <mxGeometry width="50" height="50" relative="1" as="geometry">
            <mxPoint x="260" y="910" as="sourcePoint" />
            <mxPoint x="310" y="860" as="targetPoint" />
          </mxGeometry>
        </mxCell>
        <mxCell id="_T47_QlXfjNcCWRfcqJe-30" value="" style="endArrow=classic;html=1;rounded=0;exitX=0.5;exitY=1;exitDx=0;exitDy=0;entryX=0.5;entryY=0;entryDx=0;entryDy=0;" edge="1" parent="1" source="_T47_QlXfjNcCWRfcqJe-26" target="_T47_QlXfjNcCWRfcqJe-27">
          <mxGeometry width="50" height="50" relative="1" as="geometry">
            <mxPoint x="260" y="910" as="sourcePoint" />
            <mxPoint x="310" y="860" as="targetPoint" />
          </mxGeometry>
        </mxCell>
        <mxCell id="_T47_QlXfjNcCWRfcqJe-59" style="edgeStyle=orthogonalEdgeStyle;rounded=0;orthogonalLoop=1;jettySize=auto;html=1;entryX=0.5;entryY=0;entryDx=0;entryDy=0;" edge="1" parent="1" source="_T47_QlXfjNcCWRfcqJe-34" target="_T47_QlXfjNcCWRfcqJe-35">
          <mxGeometry relative="1" as="geometry" />
        </mxCell>
        <mxCell id="_T47_QlXfjNcCWRfcqJe-34" value="record(args)" style="rounded=0;whiteSpace=wrap;html=1;" vertex="1" parent="1">
          <mxGeometry x="60" y="1310" width="120" height="60" as="geometry" />
        </mxCell>
        <mxCell id="_T47_QlXfjNcCWRfcqJe-35" value="&lt;div style=&quot;&quot;&gt;&lt;pre style=&quot;&quot;&gt;&lt;font style=&quot;font-size: 18px;&quot; face=&quot;Times New Roman&quot;&gt;class2coverage:&lt;/font&gt;&lt;/pre&gt;&lt;pre style=&quot;&quot;&gt;&lt;div style=&quot;&quot;&gt;&lt;pre style=&quot;&quot;&gt;&lt;font size=&quot;3&quot; style=&quot;&quot; face=&quot;Times New Roman&quot;&gt;Map&amp;lt;String, coverageInfo&amp;gt;&lt;/font&gt;&lt;/pre&gt;&lt;/div&gt;&lt;/pre&gt;&lt;/div&gt;" style="rounded=0;whiteSpace=wrap;html=1;" vertex="1" parent="1">
          <mxGeometry x="30" y="1430" width="180" height="60" as="geometry" />
        </mxCell>
        <mxCell id="_T47_QlXfjNcCWRfcqJe-37" value="&lt;span style=&quot;color: rgb(0, 0, 0); font-family: Helvetica; font-size: 12px; font-style: normal; font-variant-ligatures: normal; font-variant-caps: normal; font-weight: 400; letter-spacing: normal; orphans: 2; text-align: center; text-indent: 0px; text-transform: none; widows: 2; word-spacing: 0px; -webkit-text-stroke-width: 0px; background-color: rgb(251, 251, 251); text-decoration-thickness: initial; text-decoration-style: initial; text-decoration-color: initial; float: none; display: inline !important;&quot;&gt;store current coverage context&lt;/span&gt;" style="text;whiteSpace=wrap;html=1;" vertex="1" parent="1">
          <mxGeometry x="140" y="1385" width="170" height="30" as="geometry" />
        </mxCell>
        <mxCell id="_T47_QlXfjNcCWRfcqJe-39" value="insert a function call" style="text;html=1;align=center;verticalAlign=middle;resizable=0;points=[];autosize=1;strokeColor=none;fillColor=none;" vertex="1" parent="1">
          <mxGeometry x="155" y="1260" width="130" height="30" as="geometry" />
        </mxCell>
        <mxCell id="_T47_QlXfjNcCWRfcqJe-60" style="edgeStyle=orthogonalEdgeStyle;rounded=0;orthogonalLoop=1;jettySize=auto;html=1;exitX=0.5;exitY=1;exitDx=0;exitDy=0;entryX=0.5;entryY=0;entryDx=0;entryDy=0;" edge="1" parent="1" source="_T47_QlXfjNcCWRfcqJe-40" target="_T47_QlXfjNcCWRfcqJe-43">
          <mxGeometry relative="1" as="geometry" />
        </mxCell>
        <mxCell id="_T47_QlXfjNcCWRfcqJe-40" value="&lt;font style=&quot;&quot;&gt;&lt;font face=&quot;Times New Roman&quot; style=&quot;font-size: 18px;&quot;&gt;@override&lt;br&gt;&lt;span style=&quot;background-color: initial;&quot;&gt;visitJumpInsn:void&lt;/span&gt;&lt;/font&gt;&lt;br&gt;&lt;/font&gt;" style="rounded=0;whiteSpace=wrap;html=1;" vertex="1" parent="1">
          <mxGeometry x="230" y="1190" width="190" height="50" as="geometry" />
        </mxCell>
        <mxCell id="_T47_QlXfjNcCWRfcqJe-61" style="edgeStyle=orthogonalEdgeStyle;rounded=0;orthogonalLoop=1;jettySize=auto;html=1;entryX=0.5;entryY=0;entryDx=0;entryDy=0;" edge="1" parent="1" source="_T47_QlXfjNcCWRfcqJe-43" target="_T47_QlXfjNcCWRfcqJe-46">
          <mxGeometry relative="1" as="geometry" />
        </mxCell>
        <mxCell id="_T47_QlXfjNcCWRfcqJe-43" value="recoredBranch(args)" style="rounded=0;whiteSpace=wrap;html=1;" vertex="1" parent="1">
          <mxGeometry x="265" y="1310" width="120" height="60" as="geometry" />
        </mxCell>
        <mxCell id="_T47_QlXfjNcCWRfcqJe-46" value="&lt;div style=&quot;&quot;&gt;&lt;pre style=&quot;&quot;&gt;&lt;pre style=&quot;border-color: var(--border-color);&quot;&gt;&lt;font style=&quot;border-color: var(--border-color); font-size: 18px;&quot; face=&quot;Times New Roman&quot;&gt;class2branchCoverage&lt;/font&gt;&lt;/pre&gt;&lt;/pre&gt;&lt;pre style=&quot;&quot;&gt;&lt;font style=&quot;font-size: 18px;&quot; face=&quot;Times New Roman&quot;&gt;Map&amp;lt;String, BranchTracker&amp;gt;&lt;/font&gt;&lt;/pre&gt;&lt;/div&gt;" style="rounded=0;whiteSpace=wrap;html=1;" vertex="1" parent="1">
          <mxGeometry x="215" y="1430" width="220" height="60" as="geometry" />
        </mxCell>
        <mxCell id="_T47_QlXfjNcCWRfcqJe-65" style="edgeStyle=orthogonalEdgeStyle;rounded=0;orthogonalLoop=1;jettySize=auto;html=1;exitX=0.5;exitY=1;exitDx=0;exitDy=0;entryX=0.5;entryY=0;entryDx=0;entryDy=0;" edge="1" parent="1" source="_T47_QlXfjNcCWRfcqJe-66" target="_T47_QlXfjNcCWRfcqJe-68">
          <mxGeometry relative="1" as="geometry" />
        </mxCell>
        <mxCell id="_T47_QlXfjNcCWRfcqJe-66" value="classReader(input byte[])" style="rounded=0;whiteSpace=wrap;html=1;" vertex="1" parent="1">
          <mxGeometry x="510" y="850" width="180" height="50" as="geometry" />
        </mxCell>
        <mxCell id="_T47_QlXfjNcCWRfcqJe-67" style="edgeStyle=orthogonalEdgeStyle;rounded=0;orthogonalLoop=1;jettySize=auto;html=1;exitX=0.5;exitY=1;exitDx=0;exitDy=0;" edge="1" parent="1" source="_T47_QlXfjNcCWRfcqJe-68" target="_T47_QlXfjNcCWRfcqJe-69">
          <mxGeometry relative="1" as="geometry" />
        </mxCell>
        <mxCell id="_T47_QlXfjNcCWRfcqJe-72" style="edgeStyle=orthogonalEdgeStyle;rounded=0;orthogonalLoop=1;jettySize=auto;html=1;exitX=0;exitY=0.5;exitDx=0;exitDy=0;entryX=1;entryY=0.5;entryDx=0;entryDy=0;" edge="1" parent="1" source="_T47_QlXfjNcCWRfcqJe-68" target="_T47_QlXfjNcCWRfcqJe-25">
          <mxGeometry relative="1" as="geometry" />
        </mxCell>
        <mxCell id="_T47_QlXfjNcCWRfcqJe-68" value="custom classVisitor" style="rounded=0;whiteSpace=wrap;html=1;" vertex="1" parent="1">
          <mxGeometry x="540" y="1010" width="120" height="60" as="geometry" />
        </mxCell>
        <mxCell id="_T47_QlXfjNcCWRfcqJe-69" value="classWriter: output byte[]" style="rounded=0;whiteSpace=wrap;html=1;" vertex="1" parent="1">
          <mxGeometry x="520" y="1180" width="160" height="40" as="geometry" />
        </mxCell>
        <mxCell id="_T47_QlXfjNcCWRfcqJe-70" value="delegate each visit method" style="text;html=1;align=center;verticalAlign=middle;resizable=0;points=[];autosize=1;strokeColor=none;fillColor=none;" vertex="1" parent="1">
          <mxGeometry x="610" y="1120" width="170" height="30" as="geometry" />
        </mxCell>
        <mxCell id="_T47_QlXfjNcCWRfcqJe-71" value="custom processing in the visit method" style="text;html=1;align=center;verticalAlign=middle;resizable=0;points=[];autosize=1;strokeColor=none;fillColor=none;" vertex="1" parent="1">
          <mxGeometry x="660" y="1025" width="220" height="30" as="geometry" />
        </mxCell>
        <mxCell id="_T47_QlXfjNcCWRfcqJe-73" value="automatically invoke each visit method on each element" style="text;html=1;align=center;verticalAlign=middle;resizable=0;points=[];autosize=1;strokeColor=none;fillColor=none;" vertex="1" parent="1">
          <mxGeometry x="600" y="940" width="320" height="30" as="geometry" />
        </mxCell>
        <mxCell id="_T47_QlXfjNcCWRfcqJe-74" value="&lt;font style=&quot;font-size: 18px;&quot; face=&quot;Times New Roman&quot;&gt;runtime during junit test&lt;/font&gt;" style="ellipse;whiteSpace=wrap;html=1;" vertex="1" parent="1">
          <mxGeometry x="590" y="1340" width="240" height="80" as="geometry" />
        </mxCell>
        <mxCell id="_T47_QlXfjNcCWRfcqJe-75" value="" style="html=1;shadow=0;dashed=0;align=center;verticalAlign=middle;shape=mxgraph.arrows2.arrow;dy=0.6;dx=40;flipH=1;notch=0;" vertex="1" parent="1">
          <mxGeometry x="450" y="1345" width="100" height="70" as="geometry" />
        </mxCell>
      </root>
    </mxGraphModel>
  </diagram>
</mxfile>
